<svg width="80" height="21" viewBox="0 0 80 21" fill="none" xmlns="http://www.w3.org/2000/svg">
<path d="M7.812 14.096H3.668L2.898 16H0.07L4.396 6.2H7.126L11.466 16H8.582L7.812 14.096ZM7 12.052L5.74 8.916L4.48 12.052H7ZM16.5511 12.248H15.2911V16H12.5331V6.2H15.2911V10.008H16.6211L18.9591 6.2H21.8711L18.8051 10.932L21.8991 16H18.7771L16.5511 12.248ZM26.7503 12.248H25.4903V16H22.7323V6.2H25.4903V10.008H26.8203L29.1583 6.2H32.0703L29.0043 10.932L32.0983 16H28.9763L26.7503 12.248ZM37.7488 16.196C36.7128 16.196 35.7795 15.9767 34.9488 15.538C34.1275 15.0993 33.4788 14.4927 33.0028 13.718C32.5361 12.9433 32.3028 12.0707 32.3028 11.1C32.3028 10.1293 32.5361 9.25667 33.0028 8.482C33.4788 7.70733 34.1275 7.10067 34.9488 6.662C35.7795 6.22333 36.7128 6.004 37.7488 6.004C38.7848 6.004 39.7135 6.22333 40.5348 6.662C41.3655 7.10067 42.0141 7.70733 42.4808 8.482C42.9568 9.25667 43.1948 10.1293 43.1948 11.1C43.1948 12.0707 42.9568 12.9433 42.4808 13.718C42.0141 14.4927 41.3655 15.0993 40.5348 15.538C39.7135 15.9767 38.7848 16.196 37.7488 16.196ZM37.7488 13.9C38.2435 13.9 38.6915 13.7833 39.0928 13.55C39.4941 13.3167 39.8115 12.99 40.0448 12.57C40.2781 12.1407 40.3948 11.6507 40.3948 11.1C40.3948 10.5493 40.2781 10.064 40.0448 9.644C39.8115 9.21467 39.4941 8.88333 39.0928 8.65C38.6915 8.41667 38.2435 8.3 37.7488 8.3C37.2541 8.3 36.8061 8.41667 36.4048 8.65C36.0035 8.88333 35.6861 9.21467 35.4528 9.644C35.2195 10.064 35.1028 10.5493 35.1028 11.1C35.1028 11.6507 35.2195 12.1407 35.4528 12.57C35.6861 12.99 36.0035 13.3167 36.4048 13.55C36.8061 13.7833 37.2541 13.9 37.7488 13.9ZM49.157 6.2C50.0436 6.2 50.8136 6.34933 51.467 6.648C52.1203 6.93733 52.6243 7.35733 52.979 7.908C53.3336 8.44933 53.511 9.08867 53.511 9.826C53.511 10.5633 53.3336 11.2027 52.979 11.744C52.6243 12.2853 52.1203 12.7053 51.467 13.004C50.8136 13.2933 50.0436 13.438 49.157 13.438H47.449V16H44.677V6.2H49.157ZM48.989 11.254C49.5583 11.254 49.9876 11.1327 50.277 10.89C50.5663 10.638 50.711 10.2833 50.711 9.826C50.711 9.36867 50.5663 9.014 50.277 8.762C49.9876 8.51 49.5583 8.384 48.989 8.384H47.449V11.254H48.989ZM64.7753 13.802V17.974H62.2413V16H55.9693V17.974H53.4213V13.802H53.7713C54.3499 13.7927 54.7559 13.396 54.9893 12.612C55.2319 11.828 55.3813 10.6987 55.4373 9.224L55.5493 6.2H63.4453V13.802H64.7753ZM57.8593 9.462C57.8219 10.5073 57.7379 11.394 57.6073 12.122C57.4766 12.85 57.2759 13.41 57.0053 13.802H60.7153V8.398H57.9013L57.8593 9.462Z" fill="white"/>
<path d="M68 5.20001C68 4.64773 68.4477 4.20001 69 4.20001H78.4545C79.0068 4.20001 79.4545 4.64773 79.4545 5.20001V5.29092H68V5.20001Z" fill="white"/>
<rect x="68" y="19.4727" width="11.4545" height="0.545455" fill="white"/>
<rect x="68" y="16.2" width="11.4545" height="0.545455" fill="white"/>
<rect x="68" y="12.3818" width="11.4545" height="0.545455" fill="white"/>
<rect x="68" y="8.56366" width="11.4545" height="0.545455" fill="white"/>
<rect width="0.545455" height="14.7273" transform="matrix(-1 0 0 1 79.4545 5.29089)" fill="white"/>
<rect width="0.545455" height="14.7273" transform="matrix(-1 0 0 1 77.2727 5.29089)" fill="white"/>
<rect width="0.545455" height="14.7273" transform="matrix(-1 0 0 1 75.0909 5.29089)" fill="white"/>
<rect width="0.545455" height="14.7273" transform="matrix(-1 0 0 1 75.0909 5.29089)" fill="white"/>
<rect width="0.545455" height="14.7273" transform="matrix(-1 0 0 1 72.9091 5.29089)" fill="white"/>
<rect width="0.545455" height="14.7273" transform="matrix(-1 0 0 1 72.9091 5.29089)" fill="white"/>
<rect width="0.545455" height="14.7273" transform="matrix(-1 0 0 1 70.7273 5.29089)" fill="white"/>
<rect width="0.545455" height="14.7273" transform="matrix(-1 0 0 1 68.5455 5.29089)" fill="white"/>
<rect x="78.7727" y="6.24546" width="0.818182" height="0.818182" rx="0.409091" fill="black" stroke="#141E27" stroke-width="0.818182"/>
<rect x="74.4091" y="10.0637" width="0.818182" height="0.818182" rx="0.409091" fill="#141E27" stroke="#141E27" stroke-width="0.818182"/>
<rect x="76.5909" y="14.4273" width="0.818182" height="0.818182" rx="0.409091" fill="black" stroke="#141E27" stroke-width="0.818182"/>
<path d="M68.42 4.2V0H70.406C70.87 0 71.278 0.0860001 71.63 0.258C71.982 0.43 72.256 0.672 72.452 0.984C72.652 1.296 72.752 1.668 72.752 2.1C72.752 2.528 72.652 2.9 72.452 3.216C72.256 3.528 71.982 3.77 71.63 3.942C71.278 4.114 70.87 4.2 70.406 4.2H68.42ZM69.608 3.252H70.358C70.598 3.252 70.806 3.208 70.982 3.12C71.162 3.028 71.302 2.896 71.402 2.724C71.502 2.548 71.552 2.34 71.552 2.1C71.552 1.856 71.502 1.648 71.402 1.476C71.302 1.304 71.162 1.174 70.982 1.086C70.806 0.994 70.598 0.948 70.358 0.948H69.608V3.252Z" fill="white"/>
<path d="M77.559 0.894C77.811 0.894 78.035 0.946 78.231 1.05C78.431 1.15 78.587 1.306 78.699 1.518C78.815 1.73 78.873 2.004 78.873 2.34V4.2H77.733V2.526C77.733 2.294 77.689 2.126 77.601 2.022C77.513 1.914 77.393 1.86 77.241 1.86C77.133 1.86 77.035 1.886 76.947 1.938C76.859 1.99 76.791 2.07 76.743 2.178C76.695 2.282 76.671 2.418 76.671 2.586V4.2H75.531V2.526C75.531 2.294 75.487 2.126 75.399 2.022C75.315 1.914 75.195 1.86 75.039 1.86C74.927 1.86 74.827 1.886 74.739 1.938C74.655 1.99 74.587 2.07 74.535 2.178C74.487 2.282 74.463 2.418 74.463 2.586V4.2H73.323V0.948H74.409V1.854L74.193 1.596C74.313 1.364 74.477 1.19 74.685 1.074C74.893 0.954 75.125 0.894 75.381 0.894C75.673 0.894 75.929 0.97 76.149 1.122C76.373 1.27 76.523 1.502 76.599 1.818L76.227 1.74C76.343 1.476 76.517 1.27 76.749 1.122C76.985 0.97 77.255 0.894 77.559 0.894Z" fill="white"/>
</svg>
